<svg version="1.1" viewBox="0.0 0.0 928.3228346456693 100.0" fill="none" stroke="none" stroke-linecap="square" stroke-miterlimit="10" xmlns:xlink="http://www.w3.org/1999/xlink" xmlns="http://www.w3.org/2000/svg"><clipPath id="p.0"><path d="m0 0l928.3228 0l0 100.0l-928.3228 0l0 -100.0z" clip-rule="nonzero"/></clipPath><g clip-path="url(#p.0)"><path fill="#000000" fill-opacity="0.0" d="m0 0l928.3228 0l0 100.0l-928.3228 0z" fill-rule="evenodd"/><path fill="#bdbdbd" d="m12.522309 27.23328l102.11024 0l22.519691 22.519684l-22.519691 22.519688l-102.11024 0z" fill-rule="evenodd"/><path stroke="#666666" stroke-width="1.0" stroke-linejoin="round" stroke-linecap="butt" d="m12.522309 27.23328l102.11024 0l22.519691 22.519684l-22.519691 22.519688l-102.11024 0z" fill-rule="evenodd"/><path fill="#666666" d="m51.735355 46.44109l2.46875 0q0.828125 0 1.265625 0.125q0.59375 0.171875 1.0 0.609375q0.421875 0.4375 0.640625 1.078125q0.21875 0.640625 0.21875 1.578125q0 0.828125 -0.203125 1.421875q-0.25 0.734375 -0.703125 1.1875q-0.359375 0.34375 -0.953125 0.53125q-0.453125 0.140625 -1.1875 0.140625l-2.546875 0l0 -6.671875zm1.34375 1.125l0 4.421875l1.015625 0q0.5625 0 0.8125 -0.0625q0.328125 -0.078125 0.546875 -0.265625q0.21875 -0.203125 0.34375 -0.65625q0.140625 -0.453125 0.140625 -1.21875q0 -0.78125 -0.140625 -1.1875q-0.125 -0.421875 -0.375 -0.65625q-0.25 -0.234375 -0.625 -0.3125q-0.28125 -0.0625 -1.109375 -0.0625l-0.609375 0zm8.189606 4.0l1.28125 0.21875q-0.25 0.703125 -0.78125 1.078125q-0.53125 0.359375 -1.328125 0.359375q-1.265625 0 -1.859375 -0.828125q-0.484375 -0.65625 -0.484375 -1.65625q0 -1.203125 0.625 -1.890625q0.625 -0.6875 1.59375 -0.6875q1.078125 0 1.703125 0.71875q0.625 0.71875 0.59375 2.1875l-3.203125 0q0.015625 0.5625 0.3125 0.890625q0.296875 0.3125 0.734375 0.3125q0.296875 0 0.5 -0.15625q0.203125 -0.171875 0.3125 -0.546875zm0.078125 -1.28125q-0.015625 -0.5625 -0.296875 -0.84375q-0.265625 -0.296875 -0.65625 -0.296875q-0.421875 0 -0.6875 0.3125q-0.28125 0.296875 -0.28125 0.828125l1.921875 0zm3.640995 2.828125l-1.9531288 -4.84375l1.3437538 0l0.921875 2.46875l0.25 0.828125q0.109375 -0.3125 0.140625 -0.40625q0.0625 -0.203125 0.140625 -0.421875l0.90625 -2.46875l1.328125 0l-1.921875 4.84375l-1.15625 0zm6.656616 -1.546875l1.28125 0.21875q-0.25 0.703125 -0.78125 1.078125q-0.53125 0.359375 -1.328125 0.359375q-1.265625 0 -1.859375 -0.828125q-0.484375 -0.65625 -0.484375 -1.65625q0 -1.203125 0.625 -1.890625q0.625 -0.6875 1.59375 -0.6875q1.078125 0 1.703125 0.71875q0.625 0.71875 0.59375 2.1875l-3.203125 0q0.015625 0.5625 0.3125 0.890625q0.296875 0.3125 0.734375 0.3125q0.296875 0 0.5 -0.15625q0.203125 -0.171875 0.3125 -0.546875zm0.078125 -1.28125q-0.015625 -0.5625 -0.296875 -0.84375q-0.265625 -0.296875 -0.65625 -0.296875q-0.421875 0 -0.6875 0.3125q-0.28125 0.296875 -0.28125 0.828125l1.921875 0zm2.3128662 2.828125l0 -6.671875l1.28125 0l0 6.671875l-1.28125 0zm2.2947845 -2.484375q0 -0.640625 0.31249237 -1.234375q0.3125 -0.59375 0.890625 -0.90625q0.578125 -0.328125 1.28125 -0.328125q1.109375 0 1.796875 0.71875q0.703125 0.71875 0.703125 1.796875q0 1.109375 -0.703125 1.828125q-0.703125 0.71875 -1.78125 0.71875q-0.671875 0 -1.28125 -0.296875q-0.59375 -0.296875 -0.90625 -0.875q-0.31249237 -0.59375 -0.31249237 -1.421875zm1.3124924 0.0625q0 0.71875 0.34375 1.109375q0.34375 0.375 0.84375 0.375q0.5 0 0.828125 -0.375q0.34375 -0.390625 0.34375 -1.109375q0 -0.71875 -0.34375 -1.09375q-0.328125 -0.390625 -0.828125 -0.390625q-0.5 0 -0.84375 0.390625q-0.34375 0.375 -0.34375 1.09375zm4.651123 -2.421875l1.1875 0l0 0.71875q0.234375 -0.359375 0.625 -0.59375q0.390625 -0.234375 0.875 -0.234375q0.84375 0 1.4375 0.671875q0.59375 0.65625 0.59375 1.828125q0 1.21875 -0.59375 1.890625q-0.59375 0.671875 -1.4375 0.671875q-0.40625 0 -0.734375 -0.15625q-0.328125 -0.15625 -0.6875 -0.546875l0 2.4375l-1.265625 0l0 -6.6875zm1.265625 2.34375q0 0.8125 0.3125 1.203125q0.328125 0.390625 0.796875 0.390625q0.4375 0 0.734375 -0.359375q0.296875 -0.359375 0.296875 -1.171875q0 -0.765625 -0.3125 -1.125q-0.296875 -0.375 -0.75 -0.375q-0.46875 0 -0.78125 0.359375q-0.296875 0.359375 -0.296875 1.078125z" fill-rule="nonzero"/><path fill="#bdbdbd" d="m120.367455 26.751495l105.24409 0l23.007874 23.007874l-23.007874 23.007874l-105.24409 0l23.007881 -23.007874z" fill-rule="evenodd"/><path stroke="#666666" stroke-width="1.0" stroke-linejoin="round" stroke-linecap="butt" d="m120.367455 26.751495l105.24409 0l23.007874 23.007874l-23.007874 23.007874l-105.24409 0l23.007881 -23.007874z" fill-rule="evenodd"/><path fill="#666666" d="m162.62155 46.447495l2.46875 0q0.828125 0 1.265625 0.125q0.59375 0.171875 1.0 0.609375q0.421875 0.4375 0.640625 1.078125q0.21875 0.640625 0.21875 1.578125q0 0.828125 -0.203125 1.421875q-0.25 0.734375 -0.703125 1.1875q-0.359375 0.34375 -0.953125 0.53125q-0.453125 0.140625 -1.1875 0.140625l-2.546875 0l0 -6.671875zm1.34375 1.125l0 4.421875l1.015625 0q0.5625 0 0.8125 -0.0625q0.328125 -0.078125 0.546875 -0.265625q0.21875 -0.203125 0.34375 -0.65625q0.140625 -0.453125 0.140625 -1.21875q0 -0.78125 -0.140625 -1.1875q-0.125 -0.421875 -0.375 -0.65625q-0.25 -0.234375 -0.625 -0.3125q-0.28125 -0.0625 -1.109375 -0.0625l-0.609375 0zm8.189606 4.0l1.28125 0.21875q-0.25 0.703125 -0.78125 1.078125q-0.53125 0.359375 -1.328125 0.359375q-1.265625 0 -1.859375 -0.828125q-0.484375 -0.65625 -0.484375 -1.65625q0 -1.203125 0.625 -1.890625q0.625 -0.6875 1.59375 -0.6875q1.078125 0 1.703125 0.71875q0.625 0.71875 0.59375 2.1875l-3.203125 0q0.015625 0.5625 0.3125 0.890625q0.296875 0.3125 0.734375 0.3125q0.296875 0 0.5 -0.15625q0.203125 -0.171875 0.3125 -0.546875zm0.078125 -1.28125q-0.015625 -0.5625 -0.296875 -0.84375q-0.265625 -0.296875 -0.65625 -0.296875q-0.421875 0 -0.6875 0.3125q-0.28125 0.296875 -0.28125 0.828125l1.921875 0zm2.2816162 -2.015625l1.1875 0l0 0.71875q0.234375 -0.359375 0.625 -0.59375q0.390625 -0.234375 0.875 -0.234375q0.84375 0 1.4375 0.671875q0.59375 0.65625 0.59375 1.828125q0 1.21875 -0.59375 1.890625q-0.59375 0.671875 -1.4375 0.671875q-0.40625 0 -0.734375 -0.15625q-0.328125 -0.15625 -0.6875 -0.546875l0 2.4375l-1.265625 0l0 -6.6875zm1.265625 2.34375q0 0.8125 0.3125 1.203125q0.328125 0.390625 0.796875 0.390625q0.4375 0 0.734375 -0.359375q0.296875 -0.359375 0.296875 -1.171875q0 -0.765625 -0.3125 -1.125q-0.296875 -0.375 -0.75 -0.375q-0.46875 0 -0.78125 0.359375q-0.296875 0.359375 -0.296875 1.078125zm4.463623 2.5l0 -6.671875l1.28125 0l0 6.671875l-1.28125 0zm2.2947845 -2.484375q0 -0.640625 0.3125 -1.234375q0.3125 -0.59375 0.890625 -0.90625q0.578125 -0.328125 1.28125 -0.328125q1.109375 0 1.796875 0.71875q0.703125 0.71875 0.703125 1.796875q0 1.109375 -0.703125 1.828125q-0.703125 0.71875 -1.78125 0.71875q-0.671875 0 -1.28125 -0.296875q-0.59375 -0.296875 -0.90625 -0.875q-0.3125 -0.59375 -0.3125 -1.421875zm1.3125 0.0625q0 0.71875 0.34375 1.109375q0.34375 0.375 0.84375 0.375q0.5 0 0.828125 -0.375q0.34375 -0.390625 0.34375 -1.109375q0 -0.71875 -0.34375 -1.09375q-0.328125 -0.390625 -0.828125 -0.390625q-0.5 0 -0.84375 0.390625q-0.34375 0.375 -0.34375 1.09375zm4.072998 -2.421875l1.359375 0l1.15625 3.4375l1.140625 -3.4375l1.3125 0l-1.703125 4.65625l-0.296875 0.84375q-0.171875 0.421875 -0.328125 0.640625q-0.15625 0.234375 -0.359375 0.375q-0.1875 0.140625 -0.484375 0.21875q-0.28125 0.078125 -0.640625 0.078125q-0.375 0 -0.734375 -0.078125l-0.109375 -1.0q0.296875 0.046875 0.546875 0.046875q0.4375 0 0.65625 -0.265625q0.21875 -0.25 0.328125 -0.65625l-1.84375 -4.859375zm8.388901 -0.65625l0 -1.171875l1.28125 0l0 1.171875l-1.28125 0zm0 5.5l0 -4.84375l1.28125 0l0 4.84375l-1.28125 0zm6.9822845 0l-1.265625 0l0 -2.46875q0 -0.78125 -0.09375 -1.015625q-0.078125 -0.234375 -0.265625 -0.359375q-0.1875 -0.125 -0.4375 -0.125q-0.328125 0 -0.59375 0.1875q-0.265625 0.171875 -0.375 0.484375q-0.09375 0.296875 -0.09375 1.109375l0 2.1875l-1.28125 0l0 -4.84375l1.1875 0l0 0.71875q0.640625 -0.828125 1.59375 -0.828125q0.421875 0 0.765625 0.15625q0.359375 0.15625 0.53125 0.390625q0.1875 0.234375 0.25 0.546875q0.078125 0.296875 0.078125 0.859375l0 3.0zm3.526123 -4.84375l0 1.03125l-0.875 0l0 1.9375q0 0.59375 0.015625 0.703125q0.03125 0.09375 0.109375 0.15625q0.09375 0.0625 0.234375 0.0625q0.171875 0 0.515625 -0.125l0.109375 1.0q-0.453125 0.1875 -1.015625 0.1875q-0.34375 0 -0.625 -0.109375q-0.28125 -0.125 -0.421875 -0.296875q-0.125 -0.1875 -0.171875 -0.515625q-0.03125 -0.21875 -0.03125 -0.890625l0 -2.109375l-0.59375 0l0 -1.03125l0.59375 0l0 -0.953125l1.28125 -0.75l0 1.703125l0.875 0z" fill-rule="nonzero"/><g filter="url(#shadowFilter-p.1)"><use xlink:href="#p.1" transform="matrix(1.0 0.0 0.0 1.0 0.0 2.0)"/></g><defs><filter id="shadowFilter-p.1" filterUnits="userSpaceOnUse"><feGaussianBlur in="SourceAlpha" stdDeviation="2.0" result="blur"/><feComponentTransfer in="blur" color-interpolation-filters="sRGB"><feFuncR type="linear" slope="0" intercept="0.0"/><feFuncG type="linear" slope="0" intercept="0.0"/><feFuncB type="linear" slope="0" intercept="0.0"/><feFuncA type="linear" slope="0.498" intercept="0"/></feComponentTransfer></filter></defs><g id="p.1"><path fill="#ffffff" d="m231.80022 26.751495l105.244095 0l23.007874 23.007874l-23.007874 23.007874l-105.244095 0l23.007874 -23.007874z" fill-rule="evenodd"/><path stroke="#666666" stroke-width="1.0" stroke-linejoin="round" stroke-linecap="butt" d="m231.80022 26.751495l105.244095 0l23.007874 23.007874l-23.007874 23.007874l-105.244095 0l23.007874 -23.007874z" fill-rule="evenodd"/><path fill="#666666" d="m272.02197 53.11937l0 -5.546875l-1.984375 0l0 -1.125l5.296875 0l0 1.125l-1.96875 0l0 5.546875l-1.34375 0zm6.28656 -1.546875l1.28125 0.21875q-0.25 0.703125 -0.78125 1.078125q-0.53125 0.359375 -1.328125 0.359375q-1.265625 0 -1.859375 -0.828125q-0.484375 -0.65625 -0.484375 -1.65625q0 -1.203125 0.625 -1.890625q0.625 -0.6875 1.59375 -0.6875q1.078125 0 1.703125 0.71875q0.625 0.71875 0.59375 2.1875l-3.203125 0q0.015625 0.5625 0.3125 0.890625q0.296875 0.3125 0.734375 0.3125q0.296875 0 0.5 -0.15625q0.203125 -0.171875 0.3125 -0.546875zm0.078125 -1.28125q-0.015625 -0.5625 -0.296875 -0.84375q-0.265625 -0.296875 -0.65625 -0.296875q-0.421875 0 -0.6875 0.3125q-0.28125 0.296875 -0.28125 0.828125l1.921875 0zm1.8597412 1.453125l1.28125 -0.203125q0.078125 0.375 0.328125 0.578125q0.265625 0.1875 0.703125 0.1875q0.5 0 0.75 -0.1875q0.171875 -0.125 0.171875 -0.34375q0 -0.140625 -0.09375 -0.234375q-0.09375 -0.09375 -0.421875 -0.171875q-1.546875 -0.34375 -1.96875 -0.625q-0.578125 -0.390625 -0.578125 -1.09375q0 -0.625 0.5 -1.046875q0.5 -0.4375 1.546875 -0.4375q0.984375 0 1.46875 0.328125q0.484375 0.328125 0.671875 0.953125l-1.21875 0.234375q-0.078125 -0.28125 -0.296875 -0.4375q-0.203125 -0.15625 -0.609375 -0.15625q-0.5 0 -0.71875 0.140625q-0.15625 0.109375 -0.15625 0.265625q0 0.140625 0.140625 0.234375q0.171875 0.125 1.1875 0.359375q1.03125 0.234375 1.4375 0.5625q0.390625 0.34375 0.390625 0.953125q0 0.671875 -0.5625 1.15625q-0.546875 0.46875 -1.640625 0.46875q-0.984375 0 -1.5625 -0.390625q-0.578125 -0.40625 -0.75 -1.09375zm7.859741 -3.46875l0 1.03125l-0.875 0l0 1.9375q0 0.59375 0.015625 0.703125q0.03125 0.09375 0.109375 0.15625q0.09375 0.0625 0.234375 0.0625q0.171875 0 0.515625 -0.125l0.109375 1.0q-0.453125 0.1875 -1.015625 0.1875q-0.34375 0 -0.625 -0.109375q-0.28125 -0.125 -0.421875 -0.296875q-0.125 -0.1875 -0.171875 -0.515625q-0.03125 -0.21875 -0.03125 -0.890625l0 -2.109375l-0.59375 0l0 -1.03125l0.59375 0l0 -0.953125l1.28125 -0.75l0 1.703125l0.875 0zm2.916748 0l0.703125 0l0 -0.359375q0 -0.609375 0.125 -0.90625q0.140625 -0.296875 0.484375 -0.484375q0.359375 -0.203125 0.890625 -0.203125q0.546875 0 1.0625 0.171875l-0.171875 0.890625q-0.296875 -0.078125 -0.578125 -0.078125q-0.28125 0 -0.40625 0.140625q-0.125 0.125 -0.125 0.5l0 0.328125l0.96875 0l0 1.015625l-0.96875 0l0 3.828125l-1.28125 0l0 -3.828125l-0.703125 0l0 -1.015625zm6.4656982 3.296875l1.28125 0.21875q-0.25 0.703125 -0.78125 1.078125q-0.53125 0.359375 -1.328125 0.359375q-1.265625 0 -1.859375 -0.828125q-0.484375 -0.65625 -0.484375 -1.65625q0 -1.203125 0.625 -1.890625q0.625 -0.6875 1.59375 -0.6875q1.078125 0 1.703125 0.71875q0.625 0.71875 0.59375 2.1875l-3.203125 0q0.015625 0.5625 0.3125 0.890625q0.296875 0.3125 0.734375 0.3125q0.296875 0 0.5 -0.15625q0.203125 -0.171875 0.3125 -0.546875zm0.078125 -1.28125q-0.015625 -0.5625 -0.296875 -0.84375q-0.265625 -0.296875 -0.65625 -0.296875q-0.421875 0 -0.6875 0.3125q-0.28125 0.296875 -0.28125 0.828125l1.921875 0zm3.2659912 -0.53125l-1.15625 -0.21875q0.1875 -0.6875 0.65625 -1.03125q0.484375 -0.34375 1.4375 -0.34375q0.859375 0 1.265625 0.203125q0.421875 0.203125 0.59375 0.515625q0.171875 0.3125 0.171875 1.15625l-0.015625 1.484375q0 0.640625 0.0625 0.953125q0.0625 0.296875 0.234375 0.640625l-1.265625 0q-0.046875 -0.125 -0.125 -0.375q-0.03125 -0.109375 -0.046875 -0.15625q-0.328125 0.328125 -0.703125 0.484375q-0.375 0.15625 -0.796875 0.15625q-0.75 0 -1.1875 -0.40625q-0.421875 -0.40625 -0.421875 -1.03125q0 -0.40625 0.1875 -0.71875q0.203125 -0.328125 0.5625 -0.5q0.359375 -0.171875 1.015625 -0.296875q0.90625 -0.171875 1.25 -0.3125l0 -0.125q0 -0.375 -0.1875 -0.53125q-0.1875 -0.15625 -0.6875 -0.15625q-0.34375 0 -0.53125 0.140625q-0.1875 0.125 -0.3125 0.46875zm1.71875 1.03125q-0.25 0.09375 -0.78125 0.203125q-0.53125 0.109375 -0.703125 0.21875q-0.25 0.1875 -0.25 0.453125q0 0.265625 0.203125 0.46875q0.203125 0.1875 0.515625 0.1875q0.34375 0 0.65625 -0.21875q0.234375 -0.171875 0.296875 -0.421875q0.0625 -0.171875 0.0625 -0.625l0 -0.265625zm4.734741 -2.515625l0 1.03125l-0.875 0l0 1.9375q0 0.59375 0.015625 0.703125q0.03125 0.09375 0.109375 0.15625q0.09375 0.0625 0.234375 0.0625q0.171875 0 0.515625 -0.125l0.109375 1.0q-0.453125 0.1875 -1.015625 0.1875q-0.34375 0 -0.625 -0.109375q-0.28125 -0.125 -0.421875 -0.296875q-0.125 -0.1875 -0.171875 -0.515625q-0.03125 -0.21875 -0.03125 -0.890625l0 -2.109375l-0.59375 0l0 -1.03125l0.59375 0l0 -0.953125l1.28125 -0.75l0 1.703125l0.875 0zm4.0751038 4.84375l0 -0.71875q-0.265625 0.375 -0.703125 0.609375q-0.421875 0.21875 -0.90625 0.21875q-0.484375 0 -0.875 -0.203125q-0.390625 -0.21875 -0.5625 -0.609375q-0.171875 -0.390625 -0.171875 -1.078125l0 -3.0625l1.28125 0l0 2.234375q0 1.015625 0.0625 1.25q0.078125 0.21875 0.265625 0.359375q0.1875 0.140625 0.46875 0.140625q0.328125 0 0.59375 -0.171875q0.265625 -0.1875 0.359375 -0.453125q0.09375 -0.28125 0.09375 -1.3125l0 -2.046875l1.28125 0l0 4.84375l-1.1875 0zm3.729248 0l-1.28125 0l0 -4.84375l1.1875 0l0 0.6875q0.3125 -0.484375 0.546875 -0.640625q0.25 -0.15625 0.5625 -0.15625q0.4375 0 0.84375 0.25l-0.390625 1.109375q-0.328125 -0.203125 -0.609375 -0.203125q-0.265625 0 -0.453125 0.15625q-0.1875 0.140625 -0.296875 0.53125q-0.109375 0.375 -0.109375 1.609375l0 1.5zm5.208252 -1.546875l1.28125 0.21875q-0.25 0.703125 -0.78125 1.078125q-0.53125 0.359375 -1.328125 0.359375q-1.265625 0 -1.859375 -0.828125q-0.484375 -0.65625 -0.484375 -1.65625q0 -1.203125 0.625 -1.890625q0.625 -0.6875 1.59375 -0.6875q1.078125 0 1.703125 0.71875q0.625 0.71875 0.59375 2.1875l-3.203125 0q0.015625 0.5625 0.3125 0.890625q0.296875 0.3125 0.734375 0.3125q0.296875 0 0.5 -0.15625q0.203125 -0.171875 0.3125 -0.546875zm0.078125 -1.28125q-0.015625 -0.5625 -0.296875 -0.84375q-0.265625 -0.296875 -0.65625 -0.296875q-0.421875 0 -0.6875 0.3125q-0.28125 0.296875 -0.28125 0.828125l1.921875 0z" fill-rule="nonzero"/></g><g filter="url(#shadowFilter-p.2)"><use xlink:href="#p.2" transform="matrix(1.0 0.0 0.0 1.0 0.0 2.0)"/></g><defs><filter id="shadowFilter-p.2" filterUnits="userSpaceOnUse"><feGaussianBlur in="SourceAlpha" stdDeviation="2.0" result="blur"/><feComponentTransfer in="blur" color-interpolation-filters="sRGB"><feFuncR type="linear" slope="0" intercept="0.0"/><feFuncG type="linear" slope="0" intercept="0.0"/><feFuncB type="linear" slope="0" intercept="0.0"/><feFuncA type="linear" slope="0.498" intercept="0"/></feComponentTransfer></filter></defs><g id="p.2"><path fill="#ffffff" d="m342.76147 27.232546l105.24408 0l23.007874 23.007875l-23.007874 23.00787l-105.24408 0l23.007874 -23.00787z" fill-rule="evenodd"/><path stroke="#666666" stroke-width="1.0" stroke-linejoin="round" stroke-linecap="butt" d="m342.76147 27.232546l105.24408 0l23.007874 23.007875l-23.007874 23.00787l-105.24408 0l23.007874 -23.00787z" fill-rule="evenodd"/><path fill="#666666" d="m398.50873 42.40042l0 -6.671875l1.3125 0l2.734375 4.453125l0 -4.453125l1.25 0l0 6.671875l-1.34375 0l-2.703125 -4.359375l0 4.359375l-1.25 0zm6.4239807 -2.484375q0 -0.640625 0.3125 -1.234375q0.3125 -0.59375 0.890625 -0.90625q0.578125 -0.328125 1.28125 -0.328125q1.109375 0 1.796875 0.71875q0.703125 0.71875 0.703125 1.796875q0 1.109375 -0.703125 1.828125q-0.703125 0.71875 -1.78125 0.71875q-0.671875 0 -1.28125 -0.296875q-0.59375 -0.296875 -0.90625 -0.875q-0.3125 -0.59375 -0.3125 -1.421875zm1.3125 0.0625q0 0.71875 0.34375 1.109375q0.34375 0.375 0.84375 0.375q0.5 0 0.828125 -0.375q0.34375 -0.390625 0.34375 -1.109375q0 -0.71875 -0.34375 -1.09375q-0.328125 -0.390625 -0.828125 -0.390625q-0.5 0 -0.84375 0.390625q-0.34375 0.375 -0.34375 1.09375zm9.072998 2.421875l-1.265625 0l0 -2.46875q0 -0.78125 -0.09375 -1.015625q-0.078125 -0.234375 -0.265625 -0.359375q-0.1875 -0.125 -0.4375 -0.125q-0.328125 0 -0.59375 0.1875q-0.265625 0.171875 -0.375 0.484375q-0.09375 0.296875 -0.09375 1.109375l0 2.1875l-1.28125 0l0 -4.84375l1.1875 0l0 0.71875q0.640625 -0.828125 1.59375 -0.828125q0.421875 0 0.765625 0.15625q0.359375 0.15625 0.53125 0.390625q0.1875 0.234375 0.25 0.546875q0.078125 0.296875 0.078125 0.859375l0 3.0z" fill-rule="nonzero"/><path fill="#666666" d="m384.92938 53.600418l-1.28125 0l0 -4.84375l1.1875 0l0 0.6875q0.3125 -0.484375 0.546875 -0.640625q0.25 -0.15625 0.5625 -0.15625q0.4375 0 0.84375 0.25l-0.390625 1.109375q-0.328125 -0.203125 -0.609375 -0.203125q-0.265625 0 -0.453125 0.15625q-0.1875 0.140625 -0.296875 0.53125q-0.109375 0.375 -0.109375 1.609375l0 1.5zm5.208252 -1.546875l1.28125 0.21875q-0.25 0.703125 -0.78125 1.078125q-0.53125 0.359375 -1.328125 0.359375q-1.265625 0 -1.859375 -0.828125q-0.484375 -0.65625 -0.484375 -1.65625q0 -1.203125 0.625 -1.890625q0.625 -0.6875 1.59375 -0.6875q1.078125 0 1.703125 0.71875q0.625 0.71875 0.59375 2.1875l-3.203125 0q0.015625 0.5625 0.3125 0.890625q0.296875 0.3125 0.734375 0.3125q0.296875 0 0.5 -0.15625q0.203125 -0.171875 0.3125 -0.546875zm0.078125 -1.28125q-0.015625 -0.5625 -0.296875 -0.84375q-0.265625 -0.296875 -0.65625 -0.296875q-0.421875 0 -0.6875 0.3125q-0.28125 0.296875 -0.28125 0.828125l1.921875 0zm2.1878662 3.140625l1.46875 0.1875q0.03125 0.25 0.171875 0.34375q0.171875 0.140625 0.5625 0.140625q0.5 0 0.75 -0.15625q0.171875 -0.09375 0.265625 -0.3125q0.0625 -0.171875 0.0625 -0.59375l0 -0.703125q-0.578125 0.78125 -1.453125 0.78125q-0.984375 0 -1.546875 -0.828125q-0.453125 -0.640625 -0.453125 -1.625q0 -1.203125 0.578125 -1.84375q0.59375 -0.65625 1.46875 -0.65625q0.90625 0 1.484375 0.796875l0 -0.6875l1.1875 0l0 4.34375q0 0.859375 -0.140625 1.28125q-0.140625 0.421875 -0.390625 0.65625q-0.25 0.25 -0.6875 0.390625q-0.421875 0.140625 -1.0625 0.140625q-1.234375 0 -1.75 -0.421875q-0.515625 -0.421875 -0.515625 -1.078125q0 -0.0625 0 -0.15625zm1.140625 -2.828125q0 0.765625 0.296875 1.125q0.3125 0.359375 0.75 0.359375q0.46875 0 0.78125 -0.359375q0.328125 -0.375 0.328125 -1.09375q0 -0.75 -0.3125 -1.109375q-0.3125 -0.375 -0.78125 -0.375q-0.453125 0 -0.765625 0.359375q-0.296875 0.359375 -0.296875 1.09375zm5.901123 2.515625l-1.28125 0l0 -4.84375l1.1875 0l0 0.6875q0.3125 -0.484375 0.546875 -0.640625q0.25 -0.15625 0.5625 -0.15625q0.4375 0 0.84375 0.25l-0.390625 1.109375q-0.328125 -0.203125 -0.609375 -0.203125q-0.265625 0 -0.453125 0.15625q-0.1875 0.140625 -0.296875 0.53125q-0.109375 0.375 -0.109375 1.609375l0 1.5zm5.2082825 -1.546875l1.28125 0.21875q-0.25 0.703125 -0.78125 1.078125q-0.53125 0.359375 -1.328125 0.359375q-1.265625 0 -1.859375 -0.828125q-0.484375 -0.65625 -0.484375 -1.65625q0 -1.203125 0.625 -1.890625q0.625 -0.6875 1.59375 -0.6875q1.078125 0 1.703125 0.71875q0.625 0.71875 0.59375 2.1875l-3.203125 0q0.015625 0.5625 0.3125 0.890625q0.296875 0.3125 0.734375 0.3125q0.296875 0 0.5 -0.15625q0.203125 -0.171875 0.3125 -0.546875zm0.078125 -1.28125q-0.015625 -0.5625 -0.296875 -0.84375q-0.265625 -0.296875 -0.65625 -0.296875q-0.421875 0 -0.6875 0.3125q-0.28125 0.296875 -0.28125 0.828125l1.921875 0zm1.8597412 1.453125l1.28125 -0.203125q0.078125 0.375 0.328125 0.578125q0.265625 0.1875 0.703125 0.1875q0.5 0 0.75 -0.1875q0.171875 -0.125 0.171875 -0.34375q0 -0.140625 -0.09375 -0.234375q-0.09375 -0.09375 -0.421875 -0.171875q-1.546875 -0.34375 -1.96875 -0.625q-0.578125 -0.390625 -0.578125 -1.09375q0 -0.625 0.5 -1.046875q0.5 -0.4375 1.546875 -0.4375q0.984375 0 1.46875 0.328125q0.484375 0.328125 0.671875 0.953125l-1.21875 0.234375q-0.078125 -0.28125 -0.296875 -0.4375q-0.203125 -0.15625 -0.609375 -0.15625q-0.5 0 -0.71875 0.140625q-0.15625 0.109375 -0.15625 0.265625q0 0.140625 0.140625 0.234375q0.171875 0.125 1.1875 0.359375q1.03125 0.234375 1.4375 0.5625q0.390625 0.34375 0.390625 0.953125q0 0.671875 -0.5625 1.15625q-0.546875 0.46875 -1.640625 0.46875q-0.984375 0 -1.5625 -0.390625q-0.578125 -0.40625 -0.75 -1.09375zm5.187866 0l1.28125 -0.203125q0.078125 0.375 0.328125 0.578125q0.265625 0.1875 0.703125 0.1875q0.5 0 0.75 -0.1875q0.171875 -0.125 0.171875 -0.34375q0 -0.140625 -0.09375 -0.234375q-0.09375 -0.09375 -0.421875 -0.171875q-1.546875 -0.34375 -1.96875 -0.625q-0.578125 -0.390625 -0.578125 -1.09375q0 -0.625 0.5 -1.046875q0.5 -0.4375 1.546875 -0.4375q0.984375 0 1.46875 0.328125q0.484375 0.328125 0.671875 0.953125l-1.21875 0.234375q-0.078125 -0.28125 -0.296875 -0.4375q-0.203125 -0.15625 -0.609375 -0.15625q-0.5 0 -0.71875 0.140625q-0.15625 0.109375 -0.15625 0.265625q0 0.140625 0.140625 0.234375q0.171875 0.125 1.1875 0.359375q1.03125 0.234375 1.4375 0.5625q0.390625 0.34375 0.390625 0.953125q0 0.671875 -0.5625 1.15625q-0.546875 0.46875 -1.640625 0.46875q-0.984375 0 -1.5625 -0.390625q-0.578125 -0.40625 -0.75 -1.09375zm5.640991 -4.125l0 -1.171875l1.28125 0l0 1.171875l-1.28125 0zm0 5.5l0 -4.84375l1.28125 0l0 4.84375l-1.28125 0zm2.2947693 -2.484375q0 -0.640625 0.3125 -1.234375q0.3125 -0.59375 0.890625 -0.90625q0.578125 -0.328125 1.28125 -0.328125q1.109375 0 1.796875 0.71875q0.703125 0.71875 0.703125 1.796875q0 1.109375 -0.703125 1.828125q-0.703125 0.71875 -1.78125 0.71875q-0.671875 0 -1.28125 -0.296875q-0.59375 -0.296875 -0.90625 -0.875q-0.3125 -0.59375 -0.3125 -1.421875zm1.3125 0.0625q0 0.71875 0.34375 1.109375q0.34375 0.375 0.84375 0.375q0.5 0 0.828125 -0.375q0.34375 -0.390625 0.34375 -1.109375q0 -0.71875 -0.34375 -1.09375q-0.328125 -0.390625 -0.828125 -0.390625q-0.5 0 -0.84375 0.390625q-0.34375 0.375 -0.34375 1.09375zm9.072998 2.421875l-1.265625 0l0 -2.46875q0 -0.78125 -0.09375 -1.015625q-0.078125 -0.234375 -0.265625 -0.359375q-0.1875 -0.125 -0.4375 -0.125q-0.328125 0 -0.59375 0.1875q-0.265625 0.171875 -0.375 0.484375q-0.09375 0.296875 -0.09375 1.109375l0 2.1875l-1.28125 0l0 -4.84375l1.1875 0l0 0.71875q0.640625 -0.828125 1.59375 -0.828125q0.421875 0 0.765625 0.15625q0.359375 0.15625 0.53125 0.390625q0.1875 0.234375 0.25 0.546875q0.078125 0.296875 0.078125 0.859375l0 3.0z" fill-rule="nonzero"/><path fill="#666666" d="m401.4839 59.95667l0 1.03125l-0.875 0l0 1.9375q0 0.59375 0.015625 0.703125q0.03125 0.09375 0.109375 0.15625q0.09375 0.0625 0.234375 0.0625q0.171875 0 0.515625 -0.125l0.109375 0.9999962q-0.453125 0.1875 -1.015625 0.1875q-0.34375 0 -0.625 -0.109375q-0.28125 -0.125 -0.421875 -0.296875q-0.125 -0.1875 -0.171875 -0.5156212q-0.03125 -0.21875 -0.03125 -0.890625l0 -2.109375l-0.59375 0l0 -1.03125l0.59375 0l0 -0.953125l1.28125 -0.75l0 1.703125l0.875 0zm3.6844482 3.296875l1.28125 0.21875q-0.25 0.7031212 -0.78125 1.0781212q-0.53125 0.359375 -1.328125 0.359375q-1.265625 0 -1.859375 -0.828125q-0.484375 -0.6562462 -0.484375 -1.6562462q0 -1.203125 0.625 -1.890625q0.625 -0.6875 1.59375 -0.6875q1.078125 0 1.703125 0.71875q0.625 0.71875 0.59375 2.1875l-3.203125 0q0.015625 0.5625 0.3125 0.890625q0.296875 0.3125 0.734375 0.3125q0.296875 0 0.5 -0.15625q0.203125 -0.171875 0.3125 -0.546875zm0.078125 -1.28125q-0.015625 -0.5625 -0.296875 -0.84375q-0.265625 -0.296875 -0.65625 -0.296875q-0.421875 0 -0.6875 0.3125q-0.28125 0.296875 -0.28125 0.828125l1.921875 0zm1.8597412 1.453125l1.28125 -0.203125q0.078125 0.375 0.328125 0.578125q0.265625 0.1875 0.703125 0.1875q0.5 0 0.75 -0.1875q0.171875 -0.125 0.171875 -0.34375q0 -0.140625 -0.09375 -0.234375q-0.09375 -0.09375 -0.421875 -0.171875q-1.546875 -0.34375 -1.96875 -0.625q-0.578125 -0.390625 -0.578125 -1.09375q0 -0.625 0.5 -1.046875q0.5 -0.4375 1.546875 -0.4375q0.984375 0 1.46875 0.328125q0.484375 0.328125 0.671875 0.953125l-1.21875 0.234375q-0.078125 -0.28125 -0.296875 -0.4375q-0.203125 -0.15625 -0.609375 -0.15625q-0.5 0 -0.71875 0.140625q-0.15625 0.109375 -0.15625 0.265625q0 0.140625 0.140625 0.234375q0.171875 0.125 1.1875 0.359375q1.03125 0.234375 1.4375 0.5625q0.390625 0.34375 0.390625 0.953125q0 0.671875 -0.5625 1.1562462q-0.546875 0.46875 -1.640625 0.46875q-0.984375 0 -1.5625 -0.390625q-0.578125 -0.40625 -0.75 -1.0937462zm7.859741 -3.46875l0 1.03125l-0.875 0l0 1.9375q0 0.59375 0.015625 0.703125q0.03125 0.09375 0.109375 0.15625q0.09375 0.0625 0.234375 0.0625q0.171875 0 0.515625 -0.125l0.109375 0.9999962q-0.453125 0.1875 -1.015625 0.1875q-0.34375 0 -0.625 -0.109375q-0.28125 -0.125 -0.421875 -0.296875q-0.125 -0.1875 -0.171875 -0.5156212q-0.03125 -0.21875 -0.03125 -0.890625l0 -2.109375l-0.59375 0l0 -1.03125l0.59375 0l0 -0.953125l1.28125 -0.75l0 1.703125l0.875 0z" fill-rule="nonzero"/></g><path fill="#bdbdbd" d="m454.20358 26.750656l105.24411 0l23.007874 23.007874l-23.007874 23.007874l-105.24411 0l23.007874 -23.007874z" fill-rule="evenodd"/><path stroke="#666666" stroke-width="1.0" stroke-linejoin="round" stroke-linecap="butt" d="m454.20358 26.750656l105.24411 0l23.007874 23.007874l-23.007874 23.007874l-105.24411 0l23.007874 -23.007874z" fill-rule="evenodd"/><path fill="#666666" d="m508.56686 46.67478q0.5 0.359375 1.078125 0.5625l-0.484375 0.953125q-0.3125 -0.09375 -0.59375 -0.25q-0.078125 -0.03125 -0.90625 -0.59375q-0.65625 0.28125 -1.453125 0.28125q-1.53125 0 -2.40625 -0.90625q-0.875 -0.90625 -0.875 -2.546875q0 -1.625 0.875 -2.53125q0.875 -0.921875 2.375 -0.921875q1.484375 0 2.34375 0.921875q0.875 0.90625 0.875 2.53125q0 0.875 -0.234375 1.53125q-0.1875 0.5 -0.59375 0.96875zm-1.078125 -0.765625q0.265625 -0.296875 0.390625 -0.734375q0.125 -0.4375 0.125 -1.0q0 -1.15625 -0.515625 -1.71875q-0.5 -0.578125 -1.328125 -0.578125q-0.828125 0 -1.34375 0.578125q-0.5 0.578125 -0.5 1.71875q0 1.171875 0.5 1.765625q0.515625 0.578125 1.3125 0.578125q0.28125 0 0.546875 -0.109375q-0.40625 -0.265625 -0.828125 -0.40625l0.375 -0.78125q0.65625 0.234375 1.265625 0.6875zm6.146332 1.609375l0 -0.71875q-0.265625 0.375 -0.703125 0.609375q-0.421875 0.21875 -0.90625 0.21875q-0.48434448 0 -0.8749695 -0.203125q-0.390625 -0.21875 -0.5625 -0.609375q-0.171875 -0.390625 -0.171875 -1.078125l0 -3.0625l1.28125 0l0 2.234375q0 1.015625 0.0625 1.25q0.078125 0.21875 0.26559448 0.359375q0.1875 0.140625 0.46875 0.140625q0.328125 0 0.59375 -0.171875q0.265625 -0.1875 0.359375 -0.453125q0.09375 -0.28125 0.09375 -1.3125l0 -2.046875l1.28125 0l0 4.84375l-1.1875 0zm3.463623 -3.359375l-1.15625 -0.21875q0.1875 -0.6875 0.65625 -1.03125q0.484375 -0.34375 1.4375 -0.34375q0.859375 0 1.265625 0.203125q0.421875 0.203125 0.59375 0.515625q0.171875 0.3125 0.171875 1.15625l-0.015625 1.484375q0 0.640625 0.0625 0.953125q0.0625 0.296875 0.234375 0.640625l-1.265625 0q-0.046875 -0.125 -0.125 -0.375q-0.03125 -0.109375 -0.046875 -0.15625q-0.328125 0.328125 -0.703125 0.484375q-0.375 0.15625 -0.796875 0.15625q-0.75 0 -1.1875 -0.40625q-0.421875 -0.40625 -0.421875 -1.03125q0 -0.40625 0.1875 -0.71875q0.203125 -0.328125 0.5625 -0.5q0.359375 -0.171875 1.015625 -0.296875q0.90625 -0.171875 1.25 -0.3125l0 -0.125q0 -0.375 -0.1875 -0.53125q-0.1875 -0.15625 -0.6875 -0.15625q-0.34375 0 -0.53125 0.140625q-0.1875 0.125 -0.3125 0.46875zm1.71875 1.03125q-0.25 0.09375 -0.78125 0.203125q-0.53125 0.109375 -0.703125 0.21875q-0.25 0.1875 -0.25 0.453125q0 0.265625 0.203125 0.46875q0.203125 0.1875 0.515625 0.1875q0.34375 0 0.65625 -0.21875q0.234375 -0.171875 0.296875 -0.421875q0.0625 -0.171875 0.0625 -0.625l0 -0.265625zm2.5159912 2.328125l0 -6.671875l1.28125 0l0 6.671875l-1.28125 0zm2.5916748 -5.5l0 -1.171875l1.28125 0l0 1.171875l-1.28125 0zm0 5.5l0 -4.84375l1.28125 0l0 4.84375l-1.28125 0zm4.810425 -4.84375l0 1.03125l-0.875 0l0 1.9375q0 0.59375 0.015625 0.703125q0.03125 0.09375 0.109375 0.15625q0.09375 0.0625 0.234375 0.0625q0.171875 0 0.515625 -0.125l0.109375 1.0q-0.453125 0.1875 -1.015625 0.1875q-0.34375 0 -0.625 -0.109375q-0.28125 -0.125 -0.421875 -0.296875q-0.125 -0.1875 -0.171875 -0.515625q-0.03125 -0.21875 -0.03125 -0.890625l0 -2.109375l-0.59375 0l0 -1.03125l0.59375 0l0 -0.953125l1.28125 -0.75l0 1.703125l0.875 0zm0.27819824 0l1.359375 0l1.15625 3.4375l1.140625 -3.4375l1.3125 0l-1.703125 4.65625l-0.296875 0.84375q-0.171875 0.421875 -0.328125 0.640625q-0.15625 0.234375 -0.359375 0.375q-0.1875 0.140625 -0.484375 0.21875q-0.28125 0.078125 -0.640625 0.078125q-0.375 0 -0.734375 -0.078125l-0.109375 -1.0q0.296875 0.046875 0.546875 0.046875q0.4375 0 0.65625 -0.265625q0.21875 -0.25 0.328125 -0.65625l-1.84375 -4.859375z" fill-rule="nonzero"/><path fill="#666666" d="m506.6897 56.265408l1.3125 0.40625q-0.3125 1.09375 -1.015625 1.625q-0.6875 0.5312462 -1.765625 0.5312462q-1.328125 0 -2.1875 -0.9062462q-0.859375 -0.90625 -0.859375 -2.484375q0 -1.671875 0.859375 -2.59375q0.859375 -0.921875 2.265625 -0.921875q1.234375 0 2.0 0.734375q0.453125 0.421875 0.671875 1.21875l-1.328125 0.328125q-0.125 -0.515625 -0.5 -0.8125q-0.375 -0.3125 -0.90625 -0.3125q-0.75 0 -1.21875 0.53125q-0.453125 0.53125 -0.453125 1.734375q0 1.265625 0.453125 1.8125q0.453125 0.53125 1.1875 0.53125q0.546875 0 0.921875 -0.34375q0.390625 -0.34375 0.5625 -1.078125zm3.7208557 -4.21875l0 2.453125q0.625 -0.734375 1.484375 -0.734375q0.43753052 0 0.7969055 0.171875q0.359375 0.15625 0.53125 0.421875q0.1875 0.25 0.25 0.5625q0.0625 0.3125 0.0625 0.953125l0 2.84375l-1.265625 0l0 -2.5625q0 -0.75 -0.078125 -0.953125q-0.078125 -0.203125 -0.26565552 -0.328125q-0.171875 -0.125 -0.453125 -0.125q-0.328125 0 -0.578125 0.15625q-0.25 0.15625 -0.375 0.46875q-0.109375 0.3125 -0.109375 0.921875l0 2.421875l-1.265625 0l0 -6.671875l1.265625 0zm7.2292786 5.125l1.28125 0.21875q-0.25 0.703125 -0.78125 1.078125q-0.53125 0.3593712 -1.328125 0.3593712q-1.265625 0 -1.859375 -0.8281212q-0.484375 -0.65625 -0.484375 -1.65625q0 -1.203125 0.625 -1.890625q0.625 -0.6875 1.59375 -0.6875q1.078125 0 1.703125 0.71875q0.625 0.71875 0.59375 2.1875l-3.203125 0q0.015625 0.5625 0.3125 0.890625q0.296875 0.3125 0.734375 0.3125q0.296875 0 0.5 -0.15625q0.203125 -0.171875 0.3125 -0.546875zm0.078125 -1.28125q-0.015625 -0.5625 -0.296875 -0.84375q-0.265625 -0.296875 -0.65625 -0.296875q-0.421875 0 -0.6875 0.3125q-0.28125 0.296875 -0.28125 0.828125l1.921875 0zm6.531616 -0.578125l-1.265625 0.234375q-0.0625 -0.390625 -0.296875 -0.578125q-0.21875 -0.1875 -0.578125 -0.1875q-0.484375 0 -0.765625 0.328125q-0.28125 0.328125 -0.28125 1.109375q0 0.859375 0.28125 1.21875q0.296875 0.34375 0.78125 0.34375q0.375 0 0.59375 -0.203125q0.234375 -0.203125 0.328125 -0.71875l1.265625 0.21875q-0.203125 0.859375 -0.765625 1.3125q-0.546875 0.4374962 -1.484375 0.4374962q-1.046875 0 -1.6875 -0.6718712q-0.625 -0.671875 -0.625 -1.84375q0 -1.203125 0.625 -1.875q0.640625 -0.671875 1.71875 -0.671875q0.875 0 1.390625 0.390625q0.53125 0.375 0.765625 1.15625zm0.9222412 3.40625l0 -6.671875l1.28125 0l0 3.53125l1.5 -1.703125l1.578125 0l-1.65625 1.78125l1.765625 3.0625l-1.375 0l-1.21875 -2.171875l-0.59375 0.625l0 1.546875l-1.28125 0zm4.781616 -1.375l1.28125 -0.203125q0.078125 0.375 0.328125 0.578125q0.265625 0.1875 0.703125 0.1875q0.5 0 0.75 -0.1875q0.171875 -0.125 0.171875 -0.34375q0 -0.140625 -0.09375 -0.234375q-0.09375 -0.09375 -0.421875 -0.171875q-1.546875 -0.34375 -1.96875 -0.625q-0.578125 -0.390625 -0.578125 -1.09375q0 -0.625 0.5 -1.046875q0.5 -0.4375 1.546875 -0.4375q0.984375 0 1.46875 0.328125q0.484375 0.328125 0.671875 0.953125l-1.21875 0.234375q-0.078125 -0.28125 -0.296875 -0.4375q-0.203125 -0.15625 -0.609375 -0.15625q-0.5 0 -0.71875 0.140625q-0.15625 0.109375 -0.15625 0.265625q0 0.140625 0.140625 0.234375q0.171875 0.125 1.1875 0.359375q1.03125 0.234375 1.4375 0.5625q0.390625 0.34375 0.390625 0.953125q0 0.671875 -0.5625 1.15625q-0.546875 0.4687462 -1.640625 0.4687462q-0.984375 0 -1.5625 -0.3906212q-0.578125 -0.40625 -0.75 -1.09375z" fill-rule="nonzero"/><path fill="#bdbdbd" d="m565.1556 27.23328l105.24408 0l23.007874 23.007874l-23.007874 23.007877l-105.24408 0l23.007874 -23.007877z" fill-rule="evenodd"/><path stroke="#666666" stroke-width="1.0" stroke-linejoin="round" stroke-linecap="butt" d="m565.1556 27.23328l105.24408 0l23.007874 23.007874l-23.007874 23.007877l-105.24408 0l23.007874 -23.007877z" fill-rule="evenodd"/><path fill="#666666" d="m601.4384 48.001156l0 -6.671875l2.171875 0q1.234375 0 1.609375 0.09375q0.5625 0.15625 0.953125 0.65625q0.390625 0.5 0.390625 1.296875q0 0.609375 -0.234375 1.03125q-0.21875 0.421875 -0.5625 0.671875q-0.34375 0.234375 -0.703125 0.3125q-0.46875 0.09375 -1.390625 0.09375l-0.875 0l0 2.515625l-1.359375 0zm1.359375 -5.546875l0 1.890625l0.734375 0q0.796875 0 1.0625 -0.09375q0.265625 -0.109375 0.421875 -0.328125q0.15625 -0.234375 0.15625 -0.53125q0 -0.359375 -0.21875 -0.59375q-0.21875 -0.234375 -0.546875 -0.296875q-0.234375 -0.046875 -0.96875 -0.046875l-0.640625 0zm7.6593018 4.0l1.28125 0.21875q-0.25 0.703125 -0.78125 1.078125q-0.53125 0.359375 -1.328125 0.359375q-1.265625 0 -1.859375 -0.828125q-0.484375 -0.65625 -0.484375 -1.65625q0 -1.203125 0.625 -1.890625q0.625 -0.6875 1.59375 -0.6875q1.078125 0 1.703125 0.71875q0.625 0.71875 0.59375 2.1875l-3.203125 0q0.015625 0.5625 0.3125 0.890625q0.296875 0.3125 0.734375 0.3125q0.296875 0 0.5 -0.15625q0.203125 -0.171875 0.3125 -0.546875zm0.078125 -1.28125q-0.015625 -0.5625 -0.296875 -0.84375q-0.265625 -0.296875 -0.65625 -0.296875q-0.421875 0 -0.6875 0.3125q-0.28125 0.296875 -0.28125 0.828125l1.921875 0zm3.5316162 2.828125l-1.28125 0l0 -4.84375l1.1875 0l0 0.6875q0.3125 -0.484375 0.546875 -0.640625q0.25 -0.15625 0.5625 -0.15625q0.4375 0 0.84375 0.25l-0.390625 1.109375q-0.328125 -0.203125 -0.609375 -0.203125q-0.265625 0 -0.453125 0.15625q-0.1875 0.140625 -0.296875 0.53125q-0.109375 0.375 -0.109375 1.609375l0 1.5zm1.848877 -4.84375l0.703125 0l0 -0.359375q0 -0.609375 0.125 -0.90625q0.140625 -0.296875 0.484375 -0.484375q0.359375 -0.203125 0.890625 -0.203125q0.546875 0 1.0625 0.171875l-0.171875 0.890625q-0.296875 -0.078125 -0.578125 -0.078125q-0.28125 0 -0.40625 0.140625q-0.125 0.125 -0.125 0.5l0 0.328125l0.96875 0l0 1.015625l-0.96875 0l0 3.828125l-1.28125 0l0 -3.828125l-0.703125 0l0 -1.015625zm3.3719482 2.359375q0 -0.640625 0.3125 -1.234375q0.3125 -0.59375 0.890625 -0.90625q0.578125 -0.328125 1.28125 -0.328125q1.109375 0 1.796875 0.71875q0.703125 0.71875 0.703125 1.796875q0 1.109375 -0.703125 1.828125q-0.703125 0.71875 -1.78125 0.71875q-0.671875 0 -1.28125 -0.296875q-0.59375 -0.296875 -0.90625 -0.875q-0.3125 -0.59375 -0.3125 -1.421875zm1.3125 0.0625q0 0.71875 0.34375 1.109375q0.34375 0.375 0.84375 0.375q0.5 0 0.828125 -0.375q0.34375 -0.390625 0.34375 -1.109375q0 -0.71875 -0.34375 -1.09375q-0.328125 -0.390625 -0.828125 -0.390625q-0.5 0 -0.84375 0.390625q-0.34375 0.375 -0.34375 1.09375zm5.901123 2.421875l-1.28125 0l0 -4.84375l1.1875 0l0 0.6875q0.3125 -0.484375 0.546875 -0.640625q0.25 -0.15625 0.5625 -0.15625q0.4375 0 0.84375 0.25l-0.390625 1.109375q-0.328125 -0.203125 -0.609375 -0.203125q-0.265625 0 -0.453125 0.15625q-0.1875 0.140625 -0.296875 0.53125q-0.109375 0.375 -0.109375 1.609375l0 1.5zm2.317627 -4.84375l1.171875 0l0 0.671875q0.640625 -0.78125 1.515625 -0.78125q0.453125 0 0.796875 0.203125q0.34375 0.1875 0.5625 0.578125q0.328125 -0.390625 0.6875 -0.578125q0.375 -0.203125 0.796875 -0.203125q0.53125 0 0.890625 0.21875q0.375 0.21875 0.5625 0.640625q0.125 0.3125 0.125 1.0l0 3.09375l-1.28125 0l0 -2.765625q0 -0.71875 -0.125 -0.921875q-0.1875 -0.28125 -0.546875 -0.28125q-0.265625 0 -0.515625 0.171875q-0.234375 0.15625 -0.34375 0.484375q-0.09375 0.3125 -0.09375 0.984375l0 2.328125l-1.28125 0l0 -2.65625q0 -0.703125 -0.078125 -0.90625q-0.0625 -0.203125 -0.203125 -0.296875q-0.140625 -0.109375 -0.390625 -0.109375q-0.296875 0 -0.53125 0.171875q-0.234375 0.15625 -0.34375 0.453125q-0.09375 0.296875 -0.09375 1.0l0 2.34375l-1.28125 0l0 -4.84375zm9.3411255 1.484375l-1.15625 -0.21875q0.1875 -0.6875 0.65625 -1.03125q0.484375 -0.34375 1.4375 -0.34375q0.859375 0 1.265625 0.203125q0.421875 0.203125 0.59375 0.515625q0.171875 0.3125 0.171875 1.15625l-0.015625 1.484375q0 0.640625 0.0625 0.953125q0.0625 0.296875 0.234375 0.640625l-1.265625 0q-0.046875 -0.125 -0.125 -0.375q-0.03125 -0.109375 -0.046875 -0.15625q-0.328125 0.328125 -0.703125 0.484375q-0.375 0.15625 -0.796875 0.15625q-0.75 0 -1.1875 -0.40625q-0.421875 -0.40625 -0.421875 -1.03125q0 -0.40625 0.1875 -0.71875q0.203125 -0.328125 0.5625 -0.5q0.359375 -0.171875 1.015625 -0.296875q0.90625 -0.171875 1.25 -0.3125l0 -0.125q0 -0.375 -0.1875 -0.53125q-0.1875 -0.15625 -0.6875 -0.15625q-0.34375 0 -0.53125 0.140625q-0.1875 0.125 -0.3125 0.46875zm1.71875 1.03125q-0.25 0.09375 -0.78125 0.203125q-0.53125 0.109375 -0.703125 0.21875q-0.25 0.1875 -0.25 0.453125q0 0.265625 0.203125 0.46875q0.203125 0.1875 0.515625 0.1875q0.34375 0 0.65625 -0.21875q0.234375 -0.171875 0.296875 -0.421875q0.0625 -0.171875 0.0625 -0.625l0 -0.265625zm6.906616 2.328125l-1.265625 0l0 -2.46875q0 -0.78125 -0.09375 -1.015625q-0.078125 -0.234375 -0.265625 -0.359375q-0.1875 -0.125 -0.4375 -0.125q-0.328125 0 -0.59375 0.1875q-0.265625 0.171875 -0.375 0.484375q-0.09375 0.296875 -0.09375 1.109375l0 2.1875l-1.28125 0l0 -4.84375l1.1875 0l0 0.71875q0.640625 -0.828125 1.59375 -0.828125q0.421875 0 0.765625 0.15625q0.359375 0.15625 0.53125 0.390625q0.1875 0.234375 0.25 0.546875q0.078125 0.296875 0.078125 0.859375l0 3.0zm5.526123 -3.40625l-1.265625 0.234375q-0.0625 -0.390625 -0.296875 -0.578125q-0.21875 -0.1875 -0.578125 -0.1875q-0.484375 0 -0.765625 0.328125q-0.28125 0.328125 -0.28125 1.109375q0 0.859375 0.28125 1.21875q0.296875 0.34375 0.78125 0.34375q0.375 0 0.59375 -0.203125q0.234375 -0.203125 0.328125 -0.71875l1.265625 0.21875q-0.203125 0.859375 -0.765625 1.3125q-0.546875 0.4375 -1.484375 0.4375q-1.046875 0 -1.6875 -0.671875q-0.625 -0.671875 -0.625 -1.84375q0 -1.203125 0.625 -1.875q0.640625 -0.671875 1.71875 -0.671875q0.875 0 1.390625 0.390625q0.53125 0.375 0.765625 1.15625zm3.7659912 1.859375l1.28125 0.21875q-0.25 0.703125 -0.78125 1.078125q-0.53125 0.359375 -1.328125 0.359375q-1.265625 0 -1.859375 -0.828125q-0.484375 -0.65625 -0.484375 -1.65625q0 -1.203125 0.625 -1.890625q0.625 -0.6875 1.59375 -0.6875q1.078125 0 1.703125 0.71875q0.625 0.71875 0.59375 2.1875l-3.203125 0q0.015625 0.5625 0.3125 0.890625q0.296875 0.3125 0.734375 0.3125q0.296875 0 0.5 -0.15625q0.203125 -0.171875 0.3125 -0.546875zm0.078125 -1.28125q-0.015625 -0.5625 -0.296875 -0.84375q-0.265625 -0.296875 -0.65625 -0.296875q-0.421875 0 -0.6875 0.3125q-0.28125 0.296875 -0.28125 0.828125l1.921875 0z" fill-rule="nonzero"/><path fill="#666666" d="m622.2254 59.201157l0 -5.546875l-1.984375 0l0 -1.125l5.296875 0l0 1.125l-1.96875 0l0 5.546875l-1.34375 0zm6.28656 -1.546875l1.28125 0.21875q-0.25 0.703125 -0.78125 1.078125q-0.53125 0.3593712 -1.328125 0.3593712q-1.265625 0 -1.859375 -0.8281212q-0.484375 -0.65625 -0.484375 -1.65625q0 -1.203125 0.625 -1.890625q0.625 -0.6875 1.59375 -0.6875q1.078125 0 1.703125 0.71875q0.625 0.71875 0.59375 2.1875l-3.203125 0q0.015625 0.5625 0.3125 0.890625q0.296875 0.3125 0.734375 0.3125q0.296875 0 0.5 -0.15625q0.203125 -0.171875 0.3125 -0.546875zm0.078125 -1.28125q-0.015625 -0.5625 -0.296875 -0.84375q-0.265625 -0.296875 -0.65625 -0.296875q-0.421875 0 -0.6875 0.3125q-0.28125 0.296875 -0.28125 0.828125l1.921875 0zm1.8597412 1.453125l1.28125 -0.203125q0.078125 0.375 0.328125 0.578125q0.265625 0.1875 0.703125 0.1875q0.5 0 0.75 -0.1875q0.171875 -0.125 0.171875 -0.34375q0 -0.140625 -0.09375 -0.234375q-0.09375 -0.09375 -0.421875 -0.171875q-1.546875 -0.34375 -1.96875 -0.625q-0.578125 -0.390625 -0.578125 -1.09375q0 -0.625 0.5 -1.046875q0.5 -0.4375 1.546875 -0.4375q0.984375 0 1.46875 0.328125q0.484375 0.328125 0.671875 0.953125l-1.21875 0.234375q-0.078125 -0.28125 -0.296875 -0.4375q-0.203125 -0.15625 -0.609375 -0.15625q-0.5 0 -0.71875 0.140625q-0.15625 0.109375 -0.15625 0.265625q0 0.140625 0.140625 0.234375q0.171875 0.125 1.1875 0.359375q1.03125 0.234375 1.4375 0.5625q0.390625 0.34375 0.390625 0.953125q0 0.671875 -0.5625 1.15625q-0.546875 0.4687462 -1.640625 0.4687462q-0.984375 0 -1.5625 -0.3906212q-0.578125 -0.40625 -0.75 -1.09375zm7.859741 -3.46875l0 1.03125l-0.875 0l0 1.9375q0 0.59375 0.015625 0.703125q0.03125 0.09375 0.109375 0.15625q0.09375 0.0625 0.234375 0.0625q0.171875 0 0.515625 -0.125l0.109375 1.0q-0.453125 0.18749619 -1.015625 0.18749619q-0.34375 0 -0.625 -0.109371185q-0.28125 -0.125 -0.421875 -0.296875q-0.125 -0.1875 -0.171875 -0.515625q-0.03125 -0.21875 -0.03125 -0.890625l0 -2.109375l-0.59375 0l0 -1.03125l0.59375 0l0 -0.953125l1.28125 -0.75l0 1.703125l0.875 0z" fill-rule="nonzero"/><path fill="#bdbdbd" d="m676.6062 27.232546l105.24408 0l23.007874 23.007875l-23.007874 23.00787l-105.24408 0l23.007874 -23.00787z" fill-rule="evenodd"/><path stroke="#666666" stroke-width="1.0" stroke-linejoin="round" stroke-linecap="butt" d="m676.6062 27.232546l105.24408 0l23.007874 23.007875l-23.007874 23.00787l-105.24408 0l23.007874 -23.00787z" fill-rule="evenodd"/><path fill="#666666" d="m722.67017 45.82855l1.3125 -0.125q0.109375 0.65625 0.46875 0.96875q0.359375 0.3125 0.984375 0.3125q0.640625 0 0.96875 -0.28125q0.34375 -0.28125 0.34375 -0.640625q0 -0.234375 -0.140625 -0.40625q-0.140625 -0.171875 -0.484375 -0.28125q-0.234375 -0.09375 -1.078125 -0.296875q-1.09375 -0.265625 -1.53125 -0.65625q-0.609375 -0.5625 -0.609375 -1.34375q0 -0.515625 0.28125 -0.953125q0.296875 -0.453125 0.84375 -0.6875q0.546875 -0.234375 1.3125 -0.234375q1.25 0 1.890625 0.5625q0.640625 0.546875 0.671875 1.46875l-1.34375 0.0625q-0.09375 -0.515625 -0.375 -0.734375q-0.28125 -0.234375 -0.859375 -0.234375q-0.59375 0 -0.921875 0.234375q-0.203125 0.15625 -0.203125 0.421875q0 0.234375 0.1875 0.40625q0.265625 0.203125 1.25 0.4375q0.984375 0.234375 1.453125 0.484375q0.46875 0.25 0.734375 0.6875q0.265625 0.421875 0.265625 1.0625q0 0.5625 -0.328125 1.0625q-0.3125 0.5 -0.890625 0.75q-0.578125 0.25 -1.453125 0.25q-1.265625 0 -1.953125 -0.578125q-0.671875 -0.59375 -0.796875 -1.71875zm9.346802 0.625l1.28125 0.21875q-0.25 0.703125 -0.78125 1.078125q-0.53125 0.359375 -1.328125 0.359375q-1.265625 0 -1.859375 -0.828125q-0.484375 -0.65625 -0.484375 -1.65625q0 -1.203125 0.625 -1.890625q0.625 -0.6875 1.59375 -0.6875q1.078125 0 1.703125 0.71875q0.625 0.71875 0.59375 2.1875l-3.203125 0q0.015625 0.5625 0.3125 0.890625q0.296875 0.3125 0.734375 0.3125q0.296875 0 0.5 -0.15625q0.203125 -0.171875 0.3125 -0.546875zm0.078125 -1.28125q-0.015625 -0.5625 -0.296875 -0.84375q-0.265625 -0.296875 -0.65625 -0.296875q-0.421875 0 -0.6875 0.3125q-0.28125 0.296875 -0.28125 0.828125l1.921875 0zm6.531616 -0.578125l-1.265625 0.234375q-0.0625 -0.390625 -0.296875 -0.578125q-0.21875 -0.1875 -0.578125 -0.1875q-0.484375 0 -0.765625 0.328125q-0.28125 0.328125 -0.28125 1.109375q0 0.859375 0.28125 1.21875q0.296875 0.34375 0.78125 0.34375q0.375 0 0.59375 -0.203125q0.234375 -0.203125 0.328125 -0.71875l1.265625 0.21875q-0.203125 0.859375 -0.765625 1.3125q-0.546875 0.4375 -1.484375 0.4375q-1.046875 0 -1.6875 -0.671875q-0.625 -0.671875 -0.625 -1.84375q0 -1.203125 0.625 -1.875q0.640625 -0.671875 1.71875 -0.671875q0.875 0 1.390625 0.390625q0.53125 0.375 0.765625 1.15625zm4.156616 3.40625l0 -0.71875q-0.265625 0.375 -0.703125 0.609375q-0.421875 0.21875 -0.90625 0.21875q-0.484375 0 -0.875 -0.203125q-0.390625 -0.21875 -0.5625 -0.609375q-0.171875 -0.390625 -0.171875 -1.078125l0 -3.0625l1.28125 0l0 2.234375q0 1.015625 0.0625 1.25q0.078125 0.21875 0.265625 0.359375q0.1875 0.140625 0.46875 0.140625q0.328125 0 0.59375 -0.171875q0.265625 -0.1875 0.359375 -0.453125q0.09375 -0.28125 0.09375 -1.3125l0 -2.046875l1.28125 0l0 4.84375l-1.1875 0zm3.729248 0l-1.28125 0l0 -4.84375l1.1875 0l0 0.6875q0.3125 -0.484375 0.546875 -0.640625q0.25 -0.15625 0.5625 -0.15625q0.4375 0 0.84375 0.25l-0.390625 1.109375q-0.328125 -0.203125 -0.609375 -0.203125q-0.265625 0 -0.453125 0.15625q-0.1875 0.140625 -0.296875 0.53125q-0.109375 0.375 -0.109375 1.609375l0 1.5zm2.411377 -5.5l0 -1.171875l1.28125 0l0 1.171875l-1.28125 0zm0 5.5l0 -4.84375l1.28125 0l0 4.84375l-1.28125 0zm4.810425 -4.84375l0 1.03125l-0.875 0l0 1.9375q0 0.59375 0.015625 0.703125q0.03125 0.09375 0.109375 0.15625q0.09375 0.0625 0.234375 0.0625q0.171875 0 0.515625 -0.125l0.109375 1.0q-0.453125 0.1875 -1.015625 0.1875q-0.34375 0 -0.625 -0.109375q-0.28125 -0.125 -0.421875 -0.296875q-0.125 -0.1875 -0.171875 -0.515625q-0.03125 -0.21875 -0.03125 -0.890625l0 -2.109375l-0.59375 0l0 -1.03125l0.59375 0l0 -0.953125l1.28125 -0.75l0 1.703125l0.875 0zm0.27819824 0l1.359375 0l1.15625 3.4375l1.140625 -3.4375l1.3125 0l-1.703125 4.65625l-0.296875 0.84375q-0.171875 0.421875 -0.328125 0.640625q-0.15625 0.234375 -0.359375 0.375q-0.1875 0.140625 -0.484375 0.21875q-0.28125 0.078125 -0.640625 0.078125q-0.375 0 -0.734375 -0.078125l-0.109375 -1.0q0.296875 0.046875 0.546875 0.046875q0.4375 0 0.65625 -0.265625q0.21875 -0.25 0.328125 -0.65625l-1.84375 -4.859375z" fill-rule="nonzero"/><path fill="#666666" d="m729.80414 55.79417l-1.265625 0.234375q-0.0625 -0.390625 -0.296875 -0.578125q-0.21875 -0.1875 -0.578125 -0.1875q-0.484375 0 -0.765625 0.328125q-0.28125 0.328125 -0.28125 1.109375q0 0.859375 0.28125 1.21875q0.296875 0.34375 0.78125 0.34375q0.375 0 0.59375 -0.203125q0.234375 -0.203125 0.328125 -0.71875l1.265625 0.21875q-0.203125 0.859375 -0.765625 1.3125q-0.546875 0.4375 -1.484375 0.4375q-1.046875 0 -1.6875 -0.671875q-0.625 -0.671875 -0.625 -1.84375q0 -1.203125 0.625 -1.875q0.640625 -0.671875 1.71875 -0.671875q0.875 0 1.390625 0.390625q0.53125 0.375 0.765625 1.15625zm2.2347412 -3.265625l0 2.453125q0.625 -0.734375 1.484375 -0.734375q0.4375 0 0.796875 0.171875q0.359375 0.15625 0.53125 0.421875q0.1875 0.25 0.25 0.5625q0.0625 0.3125 0.0625 0.953125l0 2.84375l-1.265625 0l0 -2.5625q0 -0.75 -0.078125 -0.953125q-0.078125 -0.203125 -0.265625 -0.328125q-0.171875 -0.125 -0.453125 -0.125q-0.328125 0 -0.578125 0.15625q-0.25 0.15625 -0.375 0.46875q-0.109375 0.3125 -0.109375 0.921875l0 2.421875l-1.265625 0l0 -6.671875l1.265625 0zm7.229248 5.125l1.28125 0.21875q-0.25 0.703125 -0.78125 1.078125q-0.53125 0.359375 -1.328125 0.359375q-1.265625 0 -1.859375 -0.828125q-0.484375 -0.65625 -0.484375 -1.65625q0 -1.203125 0.625 -1.890625q0.625 -0.6875 1.59375 -0.6875q1.078125 0 1.703125 0.71875q0.625 0.71875 0.59375 2.1875l-3.203125 0q0.015625 0.5625 0.3125 0.890625q0.296875 0.3125 0.734375 0.3125q0.296875 0 0.5 -0.15625q0.203125 -0.171875 0.3125 -0.546875zm0.078125 -1.28125q-0.015625 -0.5625 -0.296875 -0.84375q-0.265625 -0.296875 -0.65625 -0.296875q-0.421875 0 -0.6875 0.3125q-0.28125 0.296875 -0.28125 0.828125l1.921875 0zm6.531616 -0.578125l-1.265625 0.234375q-0.0625 -0.390625 -0.296875 -0.578125q-0.21875 -0.1875 -0.578125 -0.1875q-0.484375 0 -0.765625 0.328125q-0.28125 0.328125 -0.28125 1.109375q0 0.859375 0.28125 1.21875q0.296875 0.34375 0.78125 0.34375q0.375 0 0.59375 -0.203125q0.234375 -0.203125 0.328125 -0.71875l1.265625 0.21875q-0.203125 0.859375 -0.765625 1.3125q-0.546875 0.4375 -1.484375 0.4375q-1.046875 0 -1.6875 -0.671875q-0.625 -0.671875 -0.625 -1.84375q0 -1.203125 0.625 -1.875q0.640625 -0.671875 1.71875 -0.671875q0.875 0 1.390625 0.390625q0.53125 0.375 0.765625 1.15625zm0.9222412 3.40625l0 -6.671875l1.28125 0l0 3.53125l1.5 -1.703125l1.578125 0l-1.65625 1.78125l1.765625 3.0625l-1.375 0l-1.21875 -2.171875l-0.59375 0.625l0 1.546875l-1.28125 0zm4.781616 -1.375l1.28125 -0.203125q0.078125 0.375 0.328125 0.578125q0.265625 0.1875 0.703125 0.1875q0.5 0 0.75 -0.1875q0.171875 -0.125 0.171875 -0.34375q0 -0.140625 -0.09375 -0.234375q-0.09375 -0.09375 -0.421875 -0.171875q-1.546875 -0.34375 -1.96875 -0.625q-0.578125 -0.390625 -0.578125 -1.09375q0 -0.625 0.5 -1.046875q0.5 -0.4375 1.546875 -0.4375q0.984375 0 1.46875 0.328125q0.484375 0.328125 0.671875 0.953125l-1.21875 0.234375q-0.078125 -0.28125 -0.296875 -0.4375q-0.203125 -0.15625 -0.609375 -0.15625q-0.5 0 -0.71875 0.140625q-0.15625 0.109375 -0.15625 0.265625q0 0.140625 0.140625 0.234375q0.171875 0.125 1.1875 0.359375q1.03125 0.234375 1.4375 0.5625q0.390625 0.34375 0.390625 0.953125q0 0.671875 -0.5625 1.15625q-0.546875 0.46875 -1.640625 0.46875q-0.984375 0 -1.5625 -0.390625q-0.578125 -0.40625 -0.75 -1.09375z" fill-rule="nonzero"/><path fill="#bdbdbd" d="m787.54846 27.232546l105.24408 0l23.007874 23.007875l-23.007874 23.00787l-105.24408 0l23.007874 -23.00787z" fill-rule="evenodd"/><path stroke="#666666" stroke-width="1.0" stroke-linejoin="round" stroke-linecap="butt" d="m787.54846 27.232546l105.24408 0l23.007874 23.007875l-23.007874 23.00787l-105.24408 0l23.007874 -23.00787z" fill-rule="evenodd"/><path fill="#666666" d="m825.1385 46.928547l2.46875 0q0.828125 0 1.265625 0.125q0.59375 0.171875 1.0 0.609375q0.421875 0.4375 0.640625 1.078125q0.21875 0.640625 0.21875 1.578125q0 0.828125 -0.203125 1.421875q-0.25 0.734375 -0.703125 1.1875q-0.359375 0.34375 -0.953125 0.53125q-0.453125 0.140625 -1.1875 0.140625l-2.546875 0l0 -6.671875zm1.34375 1.125l0 4.421875l1.015625 0q0.5625 0 0.8125 -0.0625q0.328125 -0.078125 0.546875 -0.265625q0.21875 -0.203125 0.34375 -0.65625q0.140625 -0.453125 0.140625 -1.21875q0 -0.78125 -0.140625 -1.1875q-0.125 -0.421875 -0.375 -0.65625q-0.25 -0.234375 -0.625 -0.3125q-0.28125 -0.0625 -1.109375 -0.0625l-0.609375 0zm8.189575 4.0l1.28125 0.21875q-0.25 0.703125 -0.78125 1.078125q-0.53125 0.359375 -1.328125 0.359375q-1.265625 0 -1.859375 -0.828125q-0.484375 -0.65625 -0.484375 -1.65625q0 -1.203125 0.625 -1.890625q0.625 -0.6875 1.59375 -0.6875q1.078125 0 1.703125 0.71875q0.625 0.71875 0.59375 2.1875l-3.203125 0q0.015625 0.5625 0.3125 0.890625q0.296875 0.3125 0.734375 0.3125q0.296875 0 0.5 -0.15625q0.203125 -0.171875 0.3125 -0.546875zm0.078125 -1.28125q-0.015625 -0.5625 -0.296875 -0.84375q-0.265625 -0.296875 -0.65625 -0.296875q-0.421875 0 -0.6875 0.3125q-0.28125 0.296875 -0.28125 0.828125l1.921875 0zm2.2816162 -2.015625l1.1875 0l0 0.71875q0.234375 -0.359375 0.625 -0.59375q0.390625 -0.234375 0.875 -0.234375q0.84375 0 1.4375 0.671875q0.59375 0.65625 0.59375 1.828125q0 1.21875 -0.59375 1.890625q-0.59375 0.671875 -1.4375 0.671875q-0.40625 0 -0.734375 -0.15625q-0.328125 -0.15625 -0.6875 -0.546875l0 2.4375l-1.265625 0l0 -6.6875zm1.265625 2.34375q0 0.8125 0.3125 1.203125q0.328125 0.390625 0.796875 0.390625q0.4375 0 0.734375 -0.359375q0.296875 -0.359375 0.296875 -1.171875q0 -0.765625 -0.3125 -1.125q-0.296875 -0.375 -0.75 -0.375q-0.46875 0 -0.78125 0.359375q-0.296875 0.359375 -0.296875 1.078125zm4.463623 2.5l0 -6.671875l1.28125 0l0 6.671875l-1.28125 0zm2.2947998 -2.484375q0 -0.640625 0.3125 -1.234375q0.3125 -0.59375 0.890625 -0.90625q0.578125 -0.328125 1.28125 -0.328125q1.109375 0 1.796875 0.71875q0.703125 0.71875 0.703125 1.796875q0 1.109375 -0.703125 1.828125q-0.703125 0.71875 -1.78125 0.71875q-0.671875 0 -1.28125 -0.296875q-0.59375 -0.296875 -0.90625 -0.875q-0.3125 -0.59375 -0.3125 -1.421875zm1.3125 0.0625q0 0.71875 0.34375 1.109375q0.34375 0.375 0.84375 0.375q0.5 0 0.828125 -0.375q0.34375 -0.390625 0.34375 -1.109375q0 -0.71875 -0.34375 -1.09375q-0.328125 -0.390625 -0.828125 -0.390625q-0.5 0 -0.84375 0.390625q-0.34375 0.375 -0.34375 1.09375zm4.072998 -2.421875l1.359375 0l1.15625 3.4375l1.140625 -3.4375l1.3125 0l-1.703125 4.65625l-0.296875 0.84375q-0.171875 0.421875 -0.328125 0.640625q-0.15625 0.234375 -0.359375 0.375q-0.1875 0.140625 -0.484375 0.21875q-0.28125 0.078125 -0.640625 0.078125q-0.375 0 -0.734375 -0.078125l-0.109375 -1.0q0.296875 0.046875 0.546875 0.046875q0.4375 0 0.65625 -0.265625q0.21875 -0.25 0.328125 -0.65625l-1.84375 -4.859375zm8.357666 0l1.1875 0l0 0.71875q0.234375 -0.359375 0.625 -0.59375q0.390625 -0.234375 0.875 -0.234375q0.84375 0 1.4375 0.671875q0.59375 0.65625 0.59375 1.828125q0 1.21875 -0.59375 1.890625q-0.59375 0.671875 -1.4375 0.671875q-0.40625 0 -0.734375 -0.15625q-0.328125 -0.15625 -0.6875 -0.546875l0 2.4375l-1.265625 0l0 -6.6875zm1.265625 2.34375q0 0.8125 0.3125 1.203125q0.328125 0.390625 0.796875 0.390625q0.4375 0 0.734375 -0.359375q0.296875 -0.359375 0.296875 -1.171875q0 -0.765625 -0.3125 -1.125q-0.296875 -0.375 -0.75 -0.375q-0.46875 0 -0.78125 0.359375q-0.296875 0.359375 -0.296875 1.078125zm5.682373 2.5l-1.28125 0l0 -4.84375l1.1875 0l0 0.6875q0.3125 -0.484375 0.546875 -0.640625q0.25 -0.15625 0.5625 -0.15625q0.4375 0 0.84375 0.25l-0.390625 1.109375q-0.328125 -0.203125 -0.609375 -0.203125q-0.265625 0 -0.453125 0.15625q-0.1875 0.140625 -0.296875 0.53125q-0.109375 0.375 -0.109375 1.609375l0 1.5zm2.114502 -2.484375q0 -0.640625 0.3125 -1.234375q0.3125 -0.59375 0.890625 -0.90625q0.578125 -0.328125 1.28125 -0.328125q1.109375 0 1.796875 0.71875q0.703125 0.71875 0.703125 1.796875q0 1.109375 -0.703125 1.828125q-0.703125 0.71875 -1.78125 0.71875q-0.671875 0 -1.28125 -0.296875q-0.59375 -0.296875 -0.90625 -0.875q-0.3125 -0.59375 -0.3125 -1.421875zm1.3125 0.0625q0 0.71875 0.34375 1.109375q0.34375 0.375 0.84375 0.375q0.5 0 0.828125 -0.375q0.34375 -0.390625 0.34375 -1.109375q0 -0.71875 -0.34375 -1.09375q-0.328125 -0.390625 -0.828125 -0.390625q-0.5 0 -0.84375 0.390625q-0.34375 0.375 -0.34375 1.09375zm9.119873 2.421875l-1.1875 0l0 -0.703125q-0.296875 0.40625 -0.703125 0.609375q-0.40625 0.203125 -0.8125 0.203125q-0.828125 0 -1.4375 -0.671875q-0.59375 -0.671875 -0.59375 -1.875q0 -1.234375 0.578125 -1.875q0.59375 -0.640625 1.46875 -0.640625q0.8125 0 1.40625 0.6875l0 -2.40625l1.28125 0l0 6.671875zm-3.421875 -2.515625q0 0.765625 0.21875 1.109375q0.3125 0.5 0.859375 0.5q0.453125 0 0.75 -0.375q0.3125 -0.375 0.3125 -1.125q0 -0.828125 -0.296875 -1.1875q-0.296875 -0.375 -0.765625 -0.375q-0.453125 0 -0.765625 0.359375q-0.3125 0.359375 -0.3125 1.09375z" fill-rule="nonzero"/></g></svg>